<?xml version="1.0" encoding="UTF-8" standalone="no"?>
<!-- Created with Inkscape (http://www.inkscape.org/) -->

<svg
   width="58mm"
   height="89mm"
   viewBox="0 0 58 89"
   version="1.1"
   id="svg1"
   inkscape:version="1.3.2 (091e20e, 2023-11-25, custom)"
   sodipodi:docname="_ActionTracker.svg"
   xml:space="preserve"
   inkscape:export-filename="ActionTracker.png"
   inkscape:export-xdpi="300"
   inkscape:export-ydpi="300"
   xmlns:inkscape="http://www.inkscape.org/namespaces/inkscape"
   xmlns:sodipodi="http://sodipodi.sourceforge.net/DTD/sodipodi-0.dtd"
   xmlns:xlink="http://www.w3.org/1999/xlink"
   xmlns="http://www.w3.org/2000/svg"
   xmlns:svg="http://www.w3.org/2000/svg"><sodipodi:namedview
     id="namedview1"
     pagecolor="#ffffff"
     bordercolor="#111111"
     borderopacity="1"
     inkscape:showpageshadow="0"
     inkscape:pageopacity="0"
     inkscape:pagecheckerboard="1"
     inkscape:deskcolor="#d1d1d1"
     inkscape:document-units="mm"
     inkscape:zoom="1.4309494"
     inkscape:cx="104.82551"
     inkscape:cy="177.15511"
     inkscape:window-width="1920"
     inkscape:window-height="1017"
     inkscape:window-x="-8"
     inkscape:window-y="-8"
     inkscape:window-maximized="1"
     inkscape:current-layer="svg1" /><defs
     id="defs1"><clipPath
       clipPathUnits="userSpaceOnUse"
       id="clipPath25"><rect
         style="fill:none;stroke:#000000;stroke-width:0.999999;stroke-linecap:butt;stroke-linejoin:bevel;paint-order:stroke markers fill;stop-color:#000000"
         id="rect25"
         width="44.999748"
         height="77.937294"
         x="251.53429"
         y="222.73541" /></clipPath><clipPath
       clipPathUnits="userSpaceOnUse"
       id="clipPath52"><path
         id="path52"
         style="stroke-width:0.1;stroke-linecap:square;paint-order:markers fill stroke;stop-color:#000000"
         d="m -880.82767,-187.29769 h 1640.84 v 73.28155 h -1640.84 z" /></clipPath><clipPath
       clipPathUnits="userSpaceOnUse"
       id="clipPath24"><rect
         style="fill:none;stroke:#000000;stroke-width:0.999999;stroke-linecap:butt;stroke-linejoin:bevel;paint-order:stroke markers fill;stop-color:#000000"
         id="rect24"
         width="44.999748"
         height="77.937294"
         x="251.53429"
         y="222.73541" /></clipPath></defs><path
     id="rect1"
     style="display:none;fill:#000000;stroke:none;stroke-width:13.2292;stroke-dashoffset:79.3111;paint-order:stroke markers fill"
     d="M 0,0 V 89.000252 H 58.174744 V 0 Z M 1.4071493,2.2768636 H 56.768111 V 86.723389 H 1.4071493 Z"
     inkscape:label="Border"
     sodipodi:nodetypes="cccccccccc" /><path
     id="path12"
     style="display:none;fill:#ffffff;stroke:none;stroke-width:13.2292;stroke-dashoffset:79.3111;paint-order:stroke markers fill"
     inkscape:label="BgBorder"
     d="m 1.9549194,1.5730306 c -0.5868772,0 -1.05936683,0.4459395 -1.05936683,0.999939 V 86.426766 c 0,0.553999 0.47248963,0.999939 1.05936683,0.999939 H 56.33868 c 0.586877,0 1.059367,-0.44594 1.059367,-0.999939 V 2.5729696 c 0,-0.5539995 -0.47249,-0.999939 -1.059367,-0.999939 z M 1.4071493,2.2768636 H 56.768111 V 86.723389 H 1.4071493 Z" /><rect
     style="display:inline;fill:#ffffff;fill-opacity:1;stroke:none;stroke-width:13.6161;stroke-dashoffset:79.3111;paint-order:stroke markers fill"
     id="rect4"
     width="56.50235"
     height="85.853706"
     x="0.89555186"
     y="1.573146"
     inkscape:label="Bg"
     ry="1"
     rx="1.0593462" /><path
     style="fill:none;stroke:#000000;stroke-width:0.264583px;stroke-linecap:butt;stroke-linejoin:miter;stroke-opacity:1"
     d="m 4.4870262,44.500001 53.0264398,-3e-6"
     id="path1"
     inkscape:label="HSeparator"
     sodipodi:nodetypes="cc" /><path
     style="fill:none;stroke:#000000;stroke-width:0.264583px;stroke-linecap:butt;stroke-linejoin:miter;stroke-opacity:1"
     d="M 29,87.502477 29,1.5731485"
     id="path2"
     inkscape:label="VSeparator"
     sodipodi:nodetypes="cc" /><image
     width="10"
     height="10"
     preserveAspectRatio="none"
     xlink:href="study.png"
     id="image12"
     x="18.036579"
     y="-48.198914"
     transform="rotate(90)"
     inkscape:label="Study" /><image
     width="10"
     height="10"
     preserveAspectRatio="none"
     xlink:href="talk.png"
     id="image1"
     x="18.036579"
     y="-19.947666"
     transform="rotate(90)"
     inkscape:label="Talk" /><image
     width="10"
     height="10"
     preserveAspectRatio="none"
     xlink:href="dream.png"
     id="image13"
     x="60.963413"
     y="-19.947666"
     transform="rotate(90)"
     inkscape:label="Dream" /><image
     width="10"
     height="10"
     preserveAspectRatio="none"
     xlink:href="work.png"
     id="image14"
     x="60.963417"
     y="-48.198914"
     transform="rotate(90)"
     inkscape:label="Work" /><path
     id="path8"
     style="display:none;fill:#f9f06b;fill-opacity:1;stroke:none;stroke-width:13.6161;stroke-dashoffset:79.3111;paint-order:stroke markers fill"
     inkscape:label="BottomLeft"
     d="m 0.89555257,44.500126 v 41.92664 c 0,0.1385 0.0297352,0.270438 0.0831991,0.390157 0.0534639,0.119719 0.13060433,0.227435 0.22634273,0.31781 0.095738,0.09038 0.2101069,0.163472 0.3369303,0.213941 0.1268235,0.05047 0.2661756,0.07803 0.4128947,0.07803 H 28.99978 V 44.500126 Z" /><path
     id="path9"
     style="display:none;fill:#1a5fb4;fill-opacity:1;stroke:none;stroke-width:13.6161;stroke-dashoffset:79.3111;paint-order:stroke markers fill"
     inkscape:label="BottomRight"
     d="m 28.99978,44.500126 v 42.926579 h 27.3389 c 0.146719,0 0.286071,-0.02756 0.412895,-0.07803 0.126823,-0.05047 0.241192,-0.123566 0.33693,-0.213941 0.09574,-0.09037 0.172879,-0.198091 0.226343,-0.31781 0.05346,-0.119719 0.0832,-0.251657 0.0832,-0.390157 v -41.92664 z" /><path
     id="path10"
     style="display:none;fill:#57e389;fill-opacity:1;stroke:none;stroke-width:13.6161;stroke-dashoffset:79.3111;paint-order:stroke markers fill"
     inkscape:label="TopLeft"
     d="m 1.9549194,1.5730306 c -0.1467191,0 -0.2860712,0.028079 -0.4128947,0.078548 C 1.4152013,1.7020475 1.3008328,1.7751443 1.2050944,1.8655192 1.109356,1.9558941 1.0322155,2.0636107 0.97875163,2.1833293 0.92528775,2.3030479 0.89555257,2.4344698 0.89555257,2.5729696 V 44.500126 H 28.99978 V 1.5730306 Z" /><path
     id="path11"
     style="display:none;fill:#e01b24;fill-opacity:1;stroke:none;stroke-width:13.6161;stroke-dashoffset:79.3111;paint-order:stroke markers fill"
     inkscape:label="TopRight"
     d="M 28.99978,1.5730306 V 44.500126 H 57.398047 V 2.5729696 c 0,-0.1384998 -0.02973,-0.2699217 -0.0832,-0.3896403 C 57.261384,2.0636107 57.184243,1.9558941 57.088505,1.8655192 56.992767,1.7751443 56.878398,1.7020475 56.751575,1.6515788 56.624751,1.60111 56.485399,1.5730306 56.33868,1.5730306 Z" /><text
     xml:space="preserve"
     style="font-size:3.175px;line-height:1.25;font-family:'Linux Libertine';-inkscape-font-specification:'Linux Libertine';stroke-width:0.264583"
     x="30.975245"
     y="-2.3972313"
     id="text14"
     transform="rotate(90)"
     inkscape:label="Hint"><tspan
       sodipodi:role="line"
       id="tspan14"
       style="font-size:3.175px;stroke-width:0.264583"
       x="30.975245"
       y="-2.3972313">3 unique or 2 same</tspan></text></svg>
