<?xml version="1.0" encoding="UTF-8" standalone="no"?>
<!-- Created with Inkscape (http://www.inkscape.org/) -->

<svg
   width="256"
   height="256"
   viewBox="0 0 67.733332 67.733333"
   version="1.1"
   id="svg1"
   inkscape:version="1.3.2 (091e20e, 2023-11-25, custom)"
   sodipodi:docname="_Token.svg"
   xml:space="preserve"
   inkscape:export-filename="robbery.png"
   inkscape:export-xdpi="100"
   inkscape:export-ydpi="100"
   xmlns:inkscape="http://www.inkscape.org/namespaces/inkscape"
   xmlns:sodipodi="http://sodipodi.sourceforge.net/DTD/sodipodi-0.dtd"
   xmlns="http://www.w3.org/2000/svg"
   xmlns:svg="http://www.w3.org/2000/svg"><sodipodi:namedview
     id="namedview1"
     pagecolor="#ffffff"
     bordercolor="#111111"
     borderopacity="1"
     inkscape:showpageshadow="0"
     inkscape:pageopacity="0"
     inkscape:pagecheckerboard="1"
     inkscape:deskcolor="#d1d1d1"
     inkscape:document-units="mm"
     inkscape:zoom="1.4627806"
     inkscape:cx="-22.559774"
     inkscape:cy="35.89055"
     inkscape:window-width="1920"
     inkscape:window-height="1017"
     inkscape:window-x="-8"
     inkscape:window-y="-8"
     inkscape:window-maximized="1"
     inkscape:current-layer="svg1" /><defs
     id="defs1" /><g
     id="g52"
     inkscape:label="Hourglass"
     transform="scale(2.5599371)"
     style="display:none;fill:none;stroke:#000000;stroke-width:2.08833;stroke-dasharray:none"><path
       style="color:#000000;display:inline;fill:#ede3c9;fill-opacity:1;stroke:#000000;stroke-width:2.08833;stroke-linecap:round;stroke-dasharray:none;paint-order:stroke fill markers"
       d="M 24.80183,13.229166 A 11.572665,11.572666 0 0 1 13.229165,24.801832 11.572665,11.572666 0 0 1 1.6564999,13.229166 11.572665,11.572666 0 0 1 13.229165,1.6564999 11.572665,11.572666 0 0 1 24.80183,13.229166 Z"
       id="path51"
       inkscape:label="Bg" /><path
       d="M 20.017776,20.24807 H 19.34065 c -0.254352,-2.502273 -1.790774,-5.674796 -3.966513,-7.018736 2.175739,-1.34394 3.712161,-4.5130274 3.966513,-7.0187364 h 0.677126 c 0.388402,0 0.701186,-0.312784 0.701186,-0.701186 0,-0.388402 -0.312784,-0.701186 -0.701186,-0.701186 H 6.4408877 c -0.3884021,0 -0.7011862,0.312784 -0.7011862,0.701186 0,0.388402 0.3127841,0.701186 0.7011862,0.701186 h 0.6771258 c 0.2543518,2.502272 1.7907744,5.6747964 3.9665135,7.0187364 -2.1757391,1.34394 -3.7121617,4.516463 -3.9665135,7.018736 H 6.4408877 c -0.3884021,0 -0.7011862,0.312784 -0.7011862,0.701186 0,0.388402 0.3127841,0.701186 0.7011862,0.701186 H 20.014339 c 0.388402,0 0.701186,-0.312784 0.701186,-0.701186 0.0034,-0.388402 -0.312784,-0.701186 -0.697749,-0.701186 z M 8.5341345,6.2105976 h 9.3903945 c -0.32997,2.629448 -2.385407,6.2625554 -4.695197,6.2625554 -2.30979,0 -4.3652275,-3.6331074 -4.6951975,-6.2625554 z m 4.6951975,7.7749174 c 2.30979,0 4.365227,3.633107 4.695197,6.262555 H 8.5341345 c 0.32997,-2.629448 2.3854075,-6.262555 4.6951975,-6.262555 z"
       id="path52"
       style="display:inline;fill:#000000;stroke:none;stroke-width:2.08833;stroke-dasharray:none"
       inkscape:label="Icon" /></g><g
     id="g3"
     inkscape:label="Conceal"
     transform="scale(2.5599371)"
     style="display:none;stroke-width:2.08817"><path
       style="color:#000000;display:inline;fill:#000000;stroke-width:2.08817;stroke-linecap:round;-inkscape-stroke:none;paint-order:stroke fill markers"
       d="M 13.228516,0 C 5.9418773,0 0,5.9418769 0,13.228516 c 0,7.286638 5.9418773,13.230468 13.228516,13.230468 7.286638,0 13.230468,-5.94383 13.230468,-13.230468 C 26.458984,5.9418769 20.515154,0 13.228516,0 Z m 0,3.3125 c 5.496162,0 9.916015,4.4198531 9.916015,9.916016 0,5.496162 -4.419853,9.916015 -9.916015,9.916015 -5.4961623,0 -9.916016,-4.419853 -9.916016,-9.916015 0,-5.4961629 4.4198537,-9.916016 9.916016,-9.916016 z"
       id="path1"
       inkscape:label="Border" /><path
       style="color:#000000;display:inline;fill:#d6dd49;fill-opacity:1;stroke-width:2.08817;stroke-linecap:round;-inkscape-stroke:none;paint-order:stroke fill markers"
       d="M 24.80183,13.229166 A 11.572665,11.572666 0 0 1 13.229165,24.801832 11.572665,11.572666 0 0 1 1.6564999,13.229166 11.572665,11.572666 0 0 1 13.229165,1.6564999 11.572665,11.572666 0 0 1 24.80183,13.229166 Z"
       id="path2"
       inkscape:label="Bg" /><path
       style="color:#000000;fill:#000000;stroke-width:4.85361;stroke-linejoin:round;stroke-dasharray:1.96347;stroke-dashoffset:8.01099;-inkscape-stroke:none"
       d="m 7.2729777,10.740862 -0.3570937,0.0056 c -0.00902,-2.61e-4 -0.018045,-2.61e-4 -0.027065,0 l -0.064924,0.0056 0.064924,0.930605 h 0.054105 l 0.3300411,-0.0056 0.3300408,0.01073 0.3300423,0.02715 0.3300395,0.0487 0.3246323,0.06493 0.3192191,0.08657 0.1136326,0.03786 0.2867581,-0.892732 -0.1244361,-0.03786 c -0.00711,-0.0038 -0.014313,-0.0073 -0.021606,-0.01073 l -0.3516831,-0.08658 c -0.00711,-0.0038 -0.014313,-0.0073 -0.021606,-0.01073 l -0.3516857,-0.07033 c -0.00899,-0.0021 -0.018045,-0.004 -0.027147,-0.0056 l -0.3516831,-0.0487 c -0.00899,-0.0021 -0.018046,-0.004 -0.027148,-0.0056 l -0.3570936,-0.0325 c -0.0072,-1.66e-4 -0.014405,-1.66e-4 -0.021606,0 l -0.3570931,-0.01073 c -0.00721,-1.67e-4 -0.014424,-1.67e-4 -0.021635,0 z m -2.1041758,0.356209 -0.062427,0.02267 c -0.00766,0.0036 -0.015227,0.0073 -0.022694,0.01125 l -0.3348443,0.147555 c -0.00766,0.0036 -0.015227,0.0073 -0.022694,0.01125 L 4.3969739,11.45438 c -0.00773,0.0055 -0.015296,0.01121 -0.022694,0.01714 l -0.3178182,0.181611 c -0.00575,0.0036 -0.011431,0.0074 -0.017028,0.01125 L 3.7329662,11.86302 c -0.00766,0.0036 -0.015227,0.0073 -0.022694,0.01125 l -0.295117,0.215666 c -0.00773,0.0055 -0.015296,0.01121 -0.022694,0.01714 l -0.2780906,0.227028 0.6186106,0.760495 0.2667406,-0.215666 0.2724157,-0.198639 0.2837655,-0.18161 0.295117,-0.17025 0.3064674,-0.158915 0.3121429,-0.136193 0.056753,-0.02266 z m 5.7243021,0.887552 -0.556573,0.689335 0.0817,0.06128 0.250196,0.229775 0.239999,0.250195 0.229776,0.275735 0.214457,0.296159 0.209358,0.316584 0.0766,0.132758 0.765929,-0.439131 -0.0817,-0.14298 c -0.0048,-0.0087 -0.01,-0.01726 -0.01542,-0.02562 l -0.219581,-0.337011 c -0.0049,-0.0069 -0.01009,-0.01375 -0.01543,-0.02039 l -0.234869,-0.316589 c -0.0048,-0.0087 -0.01,-0.01726 -0.01542,-0.02562 l -0.250195,-0.291051 c -0.0049,-0.0069 -0.01009,-0.01375 -0.01542,-0.02039 l -0.260413,-0.270609 c -0.0066,-0.007 -0.01337,-0.01382 -0.02039,-0.02039 L 11.00507,12.076455 c -0.0066,-0.007 -0.01337,-0.01382 -0.02039,-0.02039 z m -5.9006249,1.435906 -0.5564931,0.798199 0.134908,0.08994 c 0.00554,0.0038 0.011167,0.0075 0.016866,0.01114 l 0.2979208,0.19113 c 0.00554,0.0038 0.011167,0.0075 0.016866,0.01114 l 0.3091629,0.174263 c 0.00554,0.0038 0.011167,0.0075 0.016866,0.01114 l 0.3204052,0.168624 c 0.00559,0.002 0.011209,0.004 0.016866,0.0058 l 0.3316476,0.157399 c 0.00744,0.0021 0.01494,0.0041 0.022477,0.0058 l 0.3428898,0.146146 c 0.00559,0.0019 0.01121,0.0037 0.016863,0.0054 l 0.354132,0.134892 c 0.00559,0.002 0.011208,0.004 0.016864,0.0058 l 0.084317,0.02821 L 7.032958,14.438062 6.959882,14.415612 6.6282364,14.292141 6.302207,14.157162 5.9874229,14.005404 5.6838809,13.848006 5.3972035,13.684994 5.116147,13.505117 Z m 5.5932419,1.001544 -0.265334,0.07738 -0.3482486,0.08292 -0.3537787,0.06634 -0.359309,0.03868 -0.3593064,0.02208 -0.3537788,0.0057 -0.1603042,-0.0057 -0.038688,0.956307 0.1713705,0.0057 c 0.00736,1.7e-4 0.014718,1.7e-4 0.022075,0 l 0.3814188,-0.0057 c 0.00924,2.68e-4 0.018493,2.68e-4 0.027737,0 L 9.3309935,15.6437 c 0.0093,-0.0016 0.01855,-0.0035 0.027737,-0.0057 l 0.381416,-0.04423 c 0.0093,-0.0016 0.018549,-0.0035 0.027736,-0.0057 L 10.1493,15.521697 c 0.0093,-0.0016 0.01855,-0.0035 0.02774,-0.0057 l 0.375892,-0.08845 c 0.0093,-0.0016 0.01855,-0.0035 0.02774,-0.0057 l 0.281919,-0.08293 z"
       id="path4"
       sodipodi:nodetypes="cccccccccccccccccccccccccccccccccccccccccccccccccccccccccccccccccccccccccccccccccccccccccccccccccccccccccccccccccccccccccc" /><path
       style="color:#000000;fill:#000000;stroke-width:4.85361;stroke-linejoin:round;stroke-dasharray:1.96347;stroke-dashoffset:7.93245;-inkscape-stroke:none"
       d="m 19.730753,10.595517 -0.358531,0.01269 c -0.0085,-1.97e-4 -0.01705,-1.97e-4 -0.02557,0 l -0.416151,0.03842 c -0.0086,0.002 -0.0171,0.0042 -0.02557,0.0066 l -0.416151,0.05762 c -0.01077,0.0019 -0.02149,0.0041 -0.03213,0.0066 l -0.416122,0.08294 c -0.01077,0.0019 -0.02149,0.0041 -0.03213,0.0066 l -0.41615,0.108832 c -0.0086,0.002 -0.0171,0.0042 -0.02557,0.0066 l -0.416154,0.128026 c -0.01084,0.0039 -0.02155,0.0081 -0.03213,0.01269 l -0.268894,0.102443 0.39054,1.037176 0.25611,-0.09605 0.384141,-0.121637 0.390541,-0.102444 0.390541,-0.07683 0.38414,-0.05762 0.384139,-0.03213 0.339324,-0.01269 z m 1.503666,0.403963 -0.31873,0.895736 0.03296,0.01089 0.274777,0.115409 0.269262,0.131872 0.252775,0.142875 0.2418,0.153878 0.236286,0.170363 0.214314,0.181337 0.214311,0.208826 0.659439,-0.692409 -0.230801,-0.214312 c -0.007,-0.0075 -0.01439,-0.01488 -0.02195,-0.02195 L 22.817066,11.88418 c -0.007,-0.0075 -0.01439,-0.01488 -0.02195,-0.02195 l -0.252775,-0.18685 c -0.009,-0.0058 -0.01819,-0.01138 -0.02758,-0.0166 l -0.263775,-0.170365 c -0.009,-0.0058 -0.01819,-0.01138 -0.02757,-0.01659 l -0.280238,-0.159321 c -0.0073,-0.0039 -0.01454,-0.0075 -0.02195,-0.01089 l -0.291245,-0.142899 c -0.0091,-0.0039 -0.01827,-0.0075 -0.02757,-0.0109 l -0.302259,-0.12646 c -0.0073,-0.0021 -0.01459,-0.004 -0.02195,-0.0057 z m -5.685174,1.132672 -0.130684,0.104527 c -0.0054,0.0051 -0.01065,0.0104 -0.01579,0.0158 l -0.303177,0.271812 c -0.0071,0.0051 -0.01407,0.01032 -0.02088,0.01579 l -0.29272,0.297947 c -0.0055,0.0068 -0.01073,0.01377 -0.01579,0.02088 l -0.287493,0.318858 c -0.0054,0.0051 -0.01065,0.01039 -0.01579,0.01579 L 14.1899,13.538532 c -0.0054,0.0051 -0.01066,0.0104 -0.0158,0.0158 l -0.230001,0.324085 0.726573,0.533169 0.23,-0.31363 0.261368,-0.324084 0.27181,-0.303174 0.27704,-0.282266 0.287495,-0.256122 0.120217,-0.09931 z m 6.00661,1.323315 -0.248997,0.182591 -0.265599,0.177066 -0.287732,0.165988 -0.293266,0.149387 -0.304331,0.143863 -0.320931,0.127258 -0.265598,0.09406 0.320931,0.90746 0.276675,-0.09962 c 0.0074,-0.0034 0.01483,-0.0071 0.0221,-0.01097 l 0.337532,-0.132786 c 0.0056,-0.0035 0.01121,-0.0072 0.01671,-0.01097 l 0.331997,-0.149387 c 0.0056,-0.0035 0.01121,-0.0072 0.01672,-0.01097 l 0.315193,-0.166016 c 0.0074,-0.0034 0.01482,-0.0071 0.0221,-0.01097 L 21.5337,14.63418 c 0.0076,-0.0054 0.01489,-0.01097 0.0221,-0.01671 l 0.287731,-0.188143 c 0.0076,-0.0054 0.01489,-0.01097 0.0221,-0.01671 l 0.25452,-0.188142 z m -5.537872,0.997567 -0.298624,0.912462 0.09956,0.02775 c 0.0073,0.0039 0.01463,0.0076 0.02209,0.01096 l 0.381573,0.09956 c 0.0091,0.0022 0.01844,0.0041 0.02775,0.0057 l 0.381576,0.07741 c 0.0091,0.0022 0.01844,0.0041 0.02775,0.0057 l 0.387107,0.05529 c 0.0073,0.0021 0.01468,0.004 0.02209,0.0057 l 0.387105,0.03317 c 0.0091,0.0022 0.01844,0.0041 0.02775,0.0057 l 0.387107,0.0167 c 0.0073,1.71e-4 0.01473,1.71e-4 0.02209,0 l 0.337336,-0.0057 -0.0057,-0.9567 -0.326275,0.0057 -0.364985,-0.0167 -0.359453,-0.03317 -0.359454,-0.05529 -0.359455,-0.0719 -0.353924,-0.094 z"
       id="path4-6"
       sodipodi:nodetypes="ccccccccccccccccccccccccccccccccccccccccccccccccccccccccccccccccccccccccccccccccccccccccccccccccccccccccccccccccccc" /></g><g
     id="g9"
     inkscape:label="Society"
     transform="scale(2.5599371)"
     style="display:none;stroke-width:2.08817"><path
       style="color:#000000;display:inline;fill:#000000;stroke-width:2.08817;stroke-linecap:round;-inkscape-stroke:none;paint-order:stroke fill markers"
       d="M 13.228516,0 C 5.9418773,0 0,5.9418769 0,13.228516 c 0,7.286638 5.9418773,13.230468 13.228516,13.230468 7.286638,0 13.230468,-5.94383 13.230468,-13.230468 C 26.458984,5.9418769 20.515154,0 13.228516,0 Z m 0,3.3125 c 5.496162,0 9.916015,4.4198531 9.916015,9.916016 0,5.496162 -4.419853,9.916015 -9.916015,9.916015 -5.4961623,0 -9.916016,-4.419853 -9.916016,-9.916015 0,-5.4961629 4.4198537,-9.916016 9.916016,-9.916016 z"
       id="path5"
       inkscape:label="Border" /><path
       style="color:#000000;display:inline;fill:#ede3c9;fill-opacity:1;stroke-width:2.08817;stroke-linecap:round;-inkscape-stroke:none;paint-order:stroke fill markers"
       d="M 24.80183,13.229166 A 11.572665,11.572666 0 0 1 13.229165,24.801832 11.572665,11.572666 0 0 1 1.6564999,13.229166 11.572665,11.572666 0 0 1 13.229165,1.6564999 11.572665,11.572666 0 0 1 24.80183,13.229166 Z"
       id="path6"
       inkscape:label="Bg" /><g
       id="g10"
       transform="matrix(0.77096097,0,0,0.77096097,39.073014,-2.2226751)"
       inkscape:label="Icon"
       style="display:inline"><ellipse
         style="fill:none;fill-opacity:1;stroke:#000000;stroke-width:1.19732;stroke-linecap:round;stroke-linejoin:round;stroke-dasharray:none;stroke-dashoffset:33.0198;paint-order:stroke fill markers"
         id="path9"
         cx="-33.563988"
         cy="17.318968"
         rx="2.9406354"
         ry="3.2458658" /><path
         id="path9-6"
         style="fill:none;fill-opacity:1;stroke:#000000;stroke-width:1.57806;stroke-linecap:round;stroke-linejoin:round;stroke-dasharray:none;stroke-dashoffset:33.0198;paint-order:stroke fill markers"
         d="m -33.442987,21.608697 c -2.205817,-2.2e-4 -3.994118,1.326518 -3.994182,3.619491 1.39e-4,0.198714 0.01401,0.397162 0.04148,0.593811 h 7.905399 c 0.02731,-0.196663 0.04101,-0.395109 0.04098,-0.593811 -6.3e-5,-2.292769 -1.788058,-3.619423 -3.993681,-3.619491 z"
         sodipodi:nodetypes="cccccc" /><ellipse
         style="fill:#000000;fill-opacity:1;stroke:#000000;stroke-width:0.706693;stroke-linecap:round;stroke-linejoin:round;stroke-dasharray:none;stroke-dashoffset:33.0198;paint-order:stroke fill markers"
         id="path9-2"
         cx="-27.312038"
         cy="20.211723"
         rx="1.7356479"
         ry="1.9158038" /><path
         id="path9-6-2"
         style="fill:#000000;fill-opacity:1;stroke:#000000;stroke-width:0.953575;stroke-linecap:round;stroke-linejoin:round;stroke-dasharray:none;stroke-dashoffset:33.0198;paint-order:stroke fill markers"
         d="m -27.240611,22.754726 c -1.376891,-1.29e-4 -2.493164,0.775973 -2.493204,2.117292 8.6e-5,0.116241 0.0088,0.232327 0.02589,0.34736 h 4.934621 c 0.01705,-0.115041 0.0256,-0.231126 0.02558,-0.34736 -4e-5,-1.341201 -1.116121,-2.117253 -2.492891,-2.117292 z"
         sodipodi:nodetypes="cccccc" /><ellipse
         style="fill:#000000;fill-opacity:1;stroke:#000000;stroke-width:0.706693;stroke-linecap:round;stroke-linejoin:round;stroke-dasharray:none;stroke-dashoffset:33.0198;paint-order:stroke fill markers"
         id="path9-2-9"
         cx="-39.872864"
         cy="20.084766"
         rx="1.7356479"
         ry="1.9158038" /><path
         id="path9-6-2-2"
         style="fill:#000000;fill-opacity:1;stroke:#000000;stroke-width:0.953575;stroke-linecap:round;stroke-linejoin:round;stroke-dasharray:none;stroke-dashoffset:33.0198;paint-order:stroke fill markers"
         d="m -39.801436,22.627769 c -1.376891,-1.29e-4 -2.493164,0.775973 -2.493204,2.117292 8.6e-5,0.116241 0.0088,0.232327 0.02589,0.34736 h 4.934621 c 0.01705,-0.115041 0.0256,-0.231126 0.02558,-0.34736 -4e-5,-1.341201 -1.116121,-2.117253 -2.492891,-2.117292 z"
         sodipodi:nodetypes="cccccc" /></g></g><g
     id="g12"
     inkscape:label="Insanity"
     transform="scale(2.5599371)"
     style="display:none;stroke-width:2.08817"><path
       style="color:#000000;display:inline;fill:#000000;stroke-width:2.08817;stroke-linecap:round;-inkscape-stroke:none;paint-order:stroke fill markers"
       d="M 13.228516,0 C 5.9418773,0 0,5.9418769 0,13.228516 c 0,7.286638 5.9418773,13.230468 13.228516,13.230468 7.286638,0 13.230468,-5.94383 13.230468,-13.230468 C 26.458984,5.9418769 20.515154,0 13.228516,0 Z m 0,3.3125 c 5.496162,0 9.916015,4.4198531 9.916015,9.916016 0,5.496162 -4.419853,9.916015 -9.916015,9.916015 -5.4961623,0 -9.916016,-4.419853 -9.916016,-9.916015 0,-5.4961629 4.4198537,-9.916016 9.916016,-9.916016 z"
       id="path3"
       inkscape:label="Border" /><path
       style="color:#000000;display:inline;fill:#ff614f;fill-opacity:1;stroke-width:2.08817;stroke-linecap:round;-inkscape-stroke:none;paint-order:stroke fill markers"
       d="M 24.80183,13.229166 A 11.572665,11.572666 0 0 1 13.229165,24.801832 11.572665,11.572666 0 0 1 1.6564999,13.229166 11.572665,11.572666 0 0 1 13.229165,1.6564999 11.572665,11.572666 0 0 1 24.80183,13.229166 Z"
       id="path7"
       inkscape:label="Bg" /><g
       id="g15"
       transform="matrix(1.8672502,0,0,1.8672502,28.498139,12.278365)"
       inkscape:label="Icon"><path
         style="color:#000000;fill:#000000;-inkscape-stroke:none"
         d="m -8.3242188,-3.7128906 c -0.4338232,0.010306 -0.9899058,0.133479 -1.53125,0.3417968 -0.5413442,0.2083179 -1.0645752,0.4986428 -1.4062502,0.8847657 -0.69327,0.7834585 -0.879513,2.17408895 -0.90625,2.78906248 -0.01604,0.36884765 0.125558,0.89759412 0.261719,1.37890622 0.136161,0.4813122 0.275391,0.890625 0.275391,0.890625 l 0.002,0.00977 0.0059,0.00977 c 0.223405,0.4964549 0.399861,1.0089681 0.816406,1.2519531 0.160755,0.093773 0.280462,0.1468992 0.34961,0.1855469 0.06915,0.038648 0.08101,0.048021 0.109375,0.097656 -0.02223,-0.038912 0.0092,0.044304 0.02148,0.1308594 0.0123,0.086556 0.01395,0.1821397 0.08008,0.3027344 0.04914,0.089609 0.146584,0.1459397 0.222656,0.1621093 0.076073,0.01617 0.1392289,0.00987 0.1992192,0 0.1199808,-0.019747 0.2324567,-0.061282 0.3359375,-0.099609 0.1329519,-0.049243 0.232415,-0.1623504 0.2753907,-0.265625 0.042976,-0.1032746 0.048703,-0.1950317 0.054687,-0.265625 0.00228,-0.026934 0.00338,-0.027198 0.00586,-0.046875 0.026313,0.023465 0.062351,0.073271 0.1015625,0.1386718 0.040458,0.06748 0.078966,0.1478379 0.1484375,0.2285157 0.034736,0.040339 0.081471,0.082921 0.1503907,0.1132812 0.06892,0.030361 0.1624081,0.036828 0.2382812,0.013672 0.1132613,-0.034566 0.2039188,-0.055826 0.3027344,-0.1230469 0.098816,-0.067221 0.1667914,-0.1870022 0.1972656,-0.3007812 0.024336,-0.090863 0.03779,-0.1779619 0.052734,-0.2558594 0.039028,0.031301 0.078501,0.063563 0.125,0.1054688 0.063422,0.057159 0.1286818,0.1179638 0.2070313,0.1699218 0.078349,0.051958 0.1976103,0.1224641 0.3535156,0.0625 0.059667,-0.022949 0.1375655,-0.039477 0.2304687,-0.083984 0.092903,-0.044507 0.2186464,-0.1633464 0.2363282,-0.3144531 0.014852,-0.1269273 -0.00703,-0.2200732 -0.011719,-0.2988281 -0.00469,-0.078755 0.021453,-0.1118928 -0.00781,-0.078125 0.01954,-0.022546 0.1082955,-0.070081 0.2421875,-0.083984 0.133892,-0.013904 0.3006176,-7.89e-4 0.4394531,0.03125 0.2275626,0.052515 0.4432108,-0.015527 0.6035157,-0.1210937 0.1603048,-0.1055666 0.2859801,-0.2410583 0.4082031,-0.3632813 0.2909651,-0.2909649 0.6378935,-0.8402391 0.7949219,-1.0507812 0.055568,-0.074506 0.0683,-0.1308846 0.083984,-0.1972657 0.015684,-0.066381 0.025907,-0.1395333 0.035156,-0.2207031 0.018498,-0.1623394 0.028966,-0.3556301 0.033203,-0.5566406 0.00847,-0.40202104 -0.00533,-0.82359091 -0.033203,-1.06054688 -0.047197,-0.40117714 -0.021035,-0.99845482 -0.265625,-1.42382812 -0.1738467,-0.3023419 -0.4634212,-0.5454882 -0.7441406,-0.75 -0.2807195,-0.2045118 -0.5601732,-0.3688915 -0.7011719,-0.4628906 -0.7157788,-0.4771861 -1.4014743,-0.8985449 -2.3925782,-0.875 z m 0.011719,0.4550781 c 0.8604499,-0.020441 1.4207725,0.3267387 2.1289063,0.7988281 0.1658938,0.110596 0.427834,0.2653742 0.6855468,0.453125 0.2577129,0.1877509 0.5037534,0.4101453 0.6171875,0.6074219 0.125643,0.2185095 0.1562579,0.80182563 0.2089844,1.25 0.022085,0.18771979 0.037388,0.61422884 0.029297,0.99804688 -0.00405,0.19190902 -0.013414,0.37623442 -0.029297,0.51562502 -0.00794,0.069695 -0.018129,0.1270141 -0.027344,0.1660156 -0.00921,0.039001 -0.026079,0.060979 -0.00391,0.03125 -0.1840333,0.24675 -0.5452527,0.7913466 -0.7539062,1 -0.1275863,0.1275863 -0.2401879,0.2416329 -0.3359375,0.3046875 -0.09575,0.063055 -0.1547636,0.081022 -0.2519532,0.058594 -0.1859164,-0.042904 -0.3910073,-0.061461 -0.5878906,-0.041016 -0.1968833,0.020445 -0.3962259,0.073469 -0.5390625,0.2382813 -0.1246643,0.1438435 -0.108103,0.2943581 -0.1015625,0.4042969 0.00549,0.092278 0.010182,0.1531322 0.011719,0.1835937 -0.021818,0.00871 -0.070488,0.024233 -0.1191407,0.041016 -0.033216,-0.022502 -0.08869,-0.069394 -0.1503906,-0.125 -0.063043,-0.056817 -0.1324668,-0.1210664 -0.2128906,-0.1777343 -0.080424,-0.056668 -0.1741241,-0.1171876 -0.3125,-0.1171875 -0.1373087,0 -0.2306034,0.1047411 -0.2675782,0.171875 -0.036975,0.067134 -0.052092,0.1270949 -0.066406,0.1875 -0.028629,0.1208101 -0.046588,0.2472319 -0.0625,0.3066406 -0.015912,0.059409 -0.00676,0.038266 -0.013672,0.042969 -0.00429,0.00292 -0.066219,0.023171 -0.1113281,0.039063 -0.020018,-0.02944 -0.044785,-0.066783 -0.082031,-0.1289062 -0.047288,-0.078873 -0.1037848,-0.1733155 -0.2011718,-0.2558594 -0.097387,-0.082544 -0.2511175,-0.143568 -0.4101563,-0.1230469 -0.1358532,0.01753 -0.2621399,0.1405484 -0.2988281,0.2402344 -0.036688,0.099686 -0.035574,0.1760356 -0.041016,0.2402344 -0.00544,0.064199 -0.014413,0.1138663 -0.021484,0.1308593 -0.00707,0.016993 0.00609,0.0044 -0.013672,0.011719 -0.084246,0.031203 -0.1597364,0.053384 -0.2167969,0.066406 -0.00645,-0.027966 -0.00815,-0.029501 -0.013672,-0.068359 -0.011982,-0.084335 -0.00203,-0.166623 -0.074219,-0.2929688 -0.071558,-0.1252308 -0.1811424,-0.2124874 -0.2832034,-0.2695312 -0.102061,-0.057044 -0.204733,-0.098594 -0.34375,-0.1796875 -0.181943,-0.1061335 -0.402049,-0.5418955 -0.626953,-1.0410156 -0.0042,-0.012218 -0.133366,-0.3909448 -0.263672,-0.8515626 -0.132384,-0.467963 -0.253085,-1.03061441 -0.244141,-1.23632807 0.02322,-0.53414911 0.262815,-1.91089773 0.791016,-2.50781253 0.259966,-0.2937849 0.730638,-0.5681745 1.2285159,-0.7597656 0.4978772,-0.1915911 1.0274436,-0.3041042 1.3808594,-0.3125 z"
         id="path12" /><path
         style="fill:#000000;stroke-width:0.103355px"
         d="m -8.1937521,0.67448569 c 0.074943,0.41218571 0.5245999,0.74942851 0.736938,0.74942851 0.2123381,0 0.8368619,-0.2872809 0.8243715,-0.76191898 -0.012491,-0.47463808 -0.3497334,-0.61203332 -0.7369382,-0.58705237 -0.3872047,0.02498096 -0.736938,0.3122619 -0.8243713,0.59954284 z"
         id="path13" /><path
         style="fill:#000000;stroke-width:0.103355px"
         d="m -10.279662,0.37471428 c 0.3372433,0.0374714 0.7869003,0.23731904 0.7494289,0.49961903 -0.037471,0.26229999 -0.2498095,0.77440949 -0.6869759,0.76191899 -0.437167,-0.01249 -0.824371,-0.4871286 -0.824371,-0.77440947 0,-0.28728094 0.374714,-0.47463808 0.761918,-0.48712855 z"
         id="path14" /><path
         style="fill:#000000;stroke-width:0.103355px"
         d="m -9.1680093,2.9977142 c -0.1888202,-0.020076 -0.3996952,-0.2623 -0.3497333,-0.4496571 0.049962,-0.1873571 0.3372428,-0.1748667 0.4871286,-0.1623762 0.1498857,0.01249 0.3996952,0.1373953 0.2498095,0.287281 -0.1498857,0.1498856 -0.2196947,0.3425625 -0.3872048,0.3247523 z"
         id="path15"
         sodipodi:nodetypes="sssss" /></g></g><g
     id="g19"
     inkscape:label="Desire"
     transform="scale(2.5599371)"
     style="display:none;stroke-width:2.08817"><path
       style="color:#000000;display:inline;fill:#000000;stroke-width:2.08817;stroke-linecap:round;-inkscape-stroke:none;paint-order:stroke fill markers"
       d="M 13.228516,0 C 5.9418773,0 0,5.9418769 0,13.228516 c 0,7.286638 5.9418773,13.230468 13.228516,13.230468 7.286638,0 13.230468,-5.94383 13.230468,-13.230468 C 26.458984,5.9418769 20.515154,0 13.228516,0 Z m 0,3.3125 c 5.496162,0 9.916015,4.4198531 9.916015,9.916016 0,5.496162 -4.419853,9.916015 -9.916015,9.916015 -5.4961623,0 -9.916016,-4.419853 -9.916016,-9.916015 0,-5.4961629 4.4198537,-9.916016 9.916016,-9.916016 z"
       id="path8"
       inkscape:label="Border" /><path
       style="color:#000000;display:inline;fill:#2ed391;fill-opacity:1;stroke-width:2.08817;stroke-linecap:round;-inkscape-stroke:none;paint-order:stroke fill markers"
       d="M 24.80183,13.229166 A 11.572665,11.572666 0 0 1 13.229165,24.801832 11.572665,11.572666 0 0 1 1.6564999,13.229166 11.572665,11.572666 0 0 1 13.229165,1.6564999 11.572665,11.572666 0 0 1 24.80183,13.229166 Z"
       id="path10"
       inkscape:label="Bg" /><g
       id="g18"
       transform="matrix(1.8672502,0,0,1.8672502,28.498139,12.278365)"
       inkscape:label="Icon"><path
         style="fill:none;stroke:#000000;stroke-width:3.21806;stroke-linecap:butt;stroke-linejoin:miter;stroke-dasharray:none;stroke-opacity:1"
         d="m 31.759994,51.973402 c 1.223579,0 8.565034,-3.058939 8.73983,-3.670728 0.174799,-0.611787 -0.0874,-2.272355 0.524387,-2.447151 0.611792,-0.174799 2.447154,0.611787 3.058941,-0.174799 0.611786,-0.786584 0.786586,-8.128041 0.786586,-8.128041 l 5.243898,3.233736 c 0,0 3.058939,-4.369914 3.058939,-5.243896 0,-0.873984 -0.699187,-10.138203 -0.961382,-10.837387 -0.262194,-0.699186 -1.922762,-4.195118 -2.796744,-4.369916 -0.873984,-0.174799 -5.943084,-0.0874 -7.341459,0.262195 -1.398373,0.349594 -3.583328,1.922762 -4.9817,2.884144 -1.398375,0.961382 -3.67073,3.058941 -3.67073,3.058941 0,0 -6.292676,-3.932925 -7.254055,-4.457314 -0.961382,-0.524389 -4.806909,-1.660566 -5.156503,-1.660566 -0.349593,0 -3.932921,-0.524391 -5.243896,0.0874 -1.310973,0.611786 -2.272352,2.709345 -2.534548,4.282516 -0.262193,1.573168 -1.835366,9.876005 -1.835366,9.876005 0,0 1.310974,3.321135 2.534555,4.981703 1.223573,1.660568 3.408528,4.544711 4.369914,4.195118 0.961379,-0.349593 4.457309,-3.146339 4.457309,-3.146339 0,0 -0.0874,5.418694 0.524393,6.030483 0.611787,0.611788 8.477631,5.243896 8.477631,5.243896 z"
         id="path19"
         transform="matrix(0.20920314,0,0,0.20920314,-15.262089,-6.5756399)" /><path
         style="fill:none;stroke:#000000;stroke-width:2.0584;stroke-linecap:round;stroke-linejoin:miter;stroke-dasharray:none;stroke-opacity:1"
         d="m 29.487639,14.042546 3.058941,6.030481"
         id="path20"
         transform="matrix(0.20920314,0,0,0.20920314,-15.262089,-6.5756399)" /><path
         style="fill:none;stroke:#000000;stroke-width:2.0584;stroke-linecap:round;stroke-linejoin:miter;stroke-dasharray:none;stroke-opacity:1"
         d="M 35.081128,17.188885 33.944953,12.818969"
         id="path21"
         transform="matrix(0.20920314,0,0,0.20920314,-15.262089,-6.5756399)" /></g></g></svg>
